<svg width="200" height="200" viewBox="0 0 200 200" fill="none" xmlns="http://www.w3.org/2000/svg">
<g clip-path="url(#clip0_5_200017)">
<g clip-path="url(#clip1_5_200017)">
<path d="M74.4131 168.556H78.418C80.9036 168.556 82.1843 169.625 82.1843 171.746C82.1843 173.866 80.9036 174.936 78.418 174.936H76.6318V178.35H74.4131V168.553V168.556ZM78.3422 172.964C79.474 172.964 79.9346 172.667 79.9346 171.746C79.9346 170.824 79.474 170.527 78.3422 170.527H76.6318V172.961H78.3422V172.964Z" fill="#004F9D"/>
<path d="M85.4618 168.556H89.6296C92.0562 168.556 93.32 169.639 93.32 171.687C93.32 173.157 92.6656 174.121 91.399 174.566L93.9885 178.35H91.3091L88.9724 174.818H87.6777V178.35H85.459V168.553L85.4618 168.556ZM89.5398 172.905C90.6126 172.905 91.0732 172.578 91.0732 171.718C91.0732 170.858 90.6126 170.53 89.5398 170.53H87.6805V172.905H89.5398Z" fill="#004F9D"/>
<path d="M97.1846 168.556H99.4033V178.353H97.1846V168.556Z" fill="#004F9D"/>
<path d="M103.571 168.556H106.95C110.374 168.556 112.25 170.323 112.25 173.454C112.25 176.586 110.374 178.353 106.95 178.353H103.571V168.556ZM106.891 176.378C108.975 176.378 109.958 175.398 109.958 173.454C109.958 171.511 108.975 170.53 106.891 170.53H105.79V176.378H106.891Z" fill="#004F9D"/>
<path d="M115.867 168.556H123.324V170.53H118.086V172.384H122.61V174.345H118.086V176.378H123.489V178.353H115.87V168.556H115.867Z" fill="#004F9D"/>
<path d="M0.400391 129.336H8.30917V140.298H18.3187V129.336H26.2275V158.745H18.3187V147.426H8.30917V158.745H0.400391V129.336Z" fill="#004F9D"/>
<path d="M29.623 144.04C29.623 135.128 36.1023 128.801 45.2609 128.801C54.4194 128.801 60.9015 135.128 60.9015 144.04C60.9015 152.952 54.4222 159.279 45.2609 159.279C36.0995 159.279 29.623 152.952 29.623 144.04ZM52.681 144.04C52.681 139.228 49.777 136.108 45.2637 136.108C40.7504 136.108 37.8464 139.228 37.8464 144.04C37.8464 148.852 40.7504 151.972 45.2637 151.972C49.777 151.972 52.681 148.852 52.681 144.04Z" fill="#004F9D"/>
<path d="M64.3447 129.336H86.3719V136.332H72.2535V140.878H84.229V147.875H72.2535V158.747H64.3447V129.339V129.336Z" fill="#004F9D"/>
<path d="M89.7678 156.918V149.566C92.537 151.572 96.292 152.686 99.8223 152.686C102.726 152.686 104.111 151.927 104.111 150.191C104.111 148.986 103.485 148.23 100.626 147.606L97.3199 146.891C91.7787 145.687 89.3662 143.147 89.3662 138.38C89.3662 132.097 93.6548 128.798 101.297 128.798C104.872 128.798 108.178 129.512 110.5 130.803V138.111C107.818 136.374 104.647 135.394 101.564 135.394C98.7495 135.394 97.3621 136.195 97.3621 137.8C97.3621 139.049 98.2102 139.626 101.159 140.251L104.468 140.965C109.784 142.124 112.107 144.665 112.107 149.566C112.107 156.117 107.995 159.279 99.9964 159.279C95.8426 159.279 92.1326 158.434 89.765 156.918H89.7678Z" fill="#004F9D"/>
<path d="M122.959 136.422H114.514V129.336H139.313V136.422H130.868V158.747H122.959V136.422Z" fill="#004F9D"/>
<path d="M142.663 129.336H155.307C162.814 129.336 166.611 132.633 166.611 139.004C166.611 143.326 164.87 146.222 161.385 147.648L168.577 158.745H159.149L153.116 148.673H150.569V158.745H142.66V129.336H142.663ZM154.773 142.349C157.41 142.349 158.57 141.368 158.57 139.184C158.57 136.999 157.408 136.022 154.773 136.022H150.575V142.349H154.773Z" fill="#004F9D"/>
<path d="M181.544 129.336H189.363L200.401 158.745H191.776L190.077 153.664H180.427L178.727 158.745H170.507L181.544 129.336ZM187.979 147.25L185.254 138.159L182.53 147.25H187.981H187.979Z" fill="#004F9D"/>
<path d="M141.068 56.0607L141.613 55.5201C143.053 54.0917 143.256 51.8398 142.096 50.1761C136.591 42.2666 118.734 21.3501 83.774 21.3501C60.4858 21.3501 39.523 29.0131 27.0673 42.4795C27.0673 42.4795 33.8274 41.2275 41.2812 41.2275C41.6912 41.2275 42.1041 41.2303 42.5169 41.2387C42.5169 41.2387 31.4233 44.328 18.667 57.7468C21.4783 57.4275 24.0453 57.2734 26.4016 57.2734C36.7286 57.2734 43.0365 60.2507 48.6142 65.449C58.0059 74.2072 56.5707 92.9167 73.829 94.7736C80.9571 95.541 82.4961 97.7061 84.6165 101.944C86.6303 105.971 88.2423 109.612 88.2423 109.612L97.7969 109.621C103.83 109.621 107.607 112.43 107.492 115.648C107.492 115.648 112.547 113.393 114.763 106.137C114.763 106.137 119.209 106.246 122.265 106.296C125.326 106.347 142.127 106.764 141.879 117.572C141.879 117.572 154.091 111.814 154.431 93.5329L154.459 92.4993C154.459 92.4993 161.612 84.9595 161.612 75.4003C161.612 75.4003 156.843 67.1323 141.071 56.0607H141.068Z" fill="#004F9D"/>
<path d="M111.815 83.6067L104.192 75.7924C104.192 75.7924 107.852 78.5484 109.169 79.2934C110.489 80.0384 111.68 80.6154 114.087 80.6378C116.497 80.6602 119.218 80.6882 119.218 80.6882C119.218 80.6882 114.101 72.4426 99.7831 62.27C99.7831 62.27 99.8898 61.4298 99.9769 60.4915C100.064 59.5532 100.37 56.9373 97.9435 55.6825C95.5226 54.4305 84.9204 48.4116 69.7657 46.2605C69.7657 46.2605 67.9289 39.124 59.6438 39.1296C51.6536 39.1296 50.2999 45.3559 50.2999 46.9663C50.2381 48.0727 50.6397 52.8901 55.4058 54.5005C55.4058 54.5005 54.42 53.0049 54.42 51.288C54.42 49.5711 55.549 45.762 60.287 45.762C65.0249 45.762 66.0585 50.1537 66.0585 52.2459C66.0585 56.2875 61.1716 61.7883 47.4043 58.0072C47.4043 58.0072 61.5676 64.6199 70.6476 83.8419C81.3621 82.9597 86.2517 86.5531 93.0174 93.7428C93.0174 93.7428 96.4859 98.2774 103.473 98.3782C110.486 98.479 116.407 94.0341 116.581 88.7462C116.752 83.4778 111.818 83.6123 111.818 83.6123L111.815 83.6067ZM88.9422 61.1581C88.9422 61.1581 88.7232 63.6536 90.3465 64.3594C91.8828 65.026 92.95 64.2138 93.2196 63.9701C95.1041 66.0567 96.368 70.0871 96.368 70.0871L92.6663 66.6953C86.4567 66.1127 83.6735 64.7095 82.3872 61.2393L78.0115 58.8614C78.0115 58.8614 81.3649 57.6235 86.4764 58.0576C91.0037 58.4413 93.5426 59.6681 94.5986 60.6091L93.3853 61.1133L94.0987 62.7294C94.0987 62.7294 91.9839 61.1637 88.9394 61.1609L88.9422 61.1581Z" fill="#FFC62F"/>
<path d="M150.212 76.9015C157.514 77.3104 158.534 75.6495 158.534 75.6495C145.842 61.3541 136.428 56.4191 136.428 56.4191L137.959 54.8646C138.891 53.918 138.872 52.3915 137.908 51.4728C135.038 48.7252 129.758 43.8042 123.329 40.3564C115.724 36.2812 110.025 34.4915 110.025 34.4915C119.518 36.1916 125.663 38.407 125.663 38.407C98.648 17.0312 58.9103 27.2233 58.1998 27.3998C70.7173 26.8984 81.7407 29.7693 81.7407 29.7693C52.4535 29.1755 37.8184 37.83 37.8184 37.83C37.8184 37.83 50.9004 35.2981 66.5804 36.7377C82.4401 38.1942 95.5221 42.9051 95.5221 42.9051C81.7295 41.9248 73.523 44.3223 73.523 44.3223C83.5691 45.958 90.0624 48.8177 97.9796 52.3971C105.95 56.0018 103.692 62.0992 103.692 62.0992C103.692 62.0992 112.306 67.9725 119.218 75.7952C124.874 82.1978 124.981 85.9425 124.981 85.9425C126.447 87.8555 136.515 95.2413 145.208 92.4601C153.922 89.6704 154.49 84.1136 153.757 81.5425C153.024 78.9769 147.845 78.9629 147.845 78.9629L139.195 70.6417L146.188 75.5095C147.376 76.3357 148.769 76.8231 150.215 76.9043L150.212 76.9015ZM123.338 54.5453C123.338 54.5453 123.119 57.0409 124.742 57.7467C126.528 58.5253 127.685 57.2902 127.685 57.2902C129.146 58.6205 130.704 60.5335 131.89 63.2251L128.053 60.3486C128.053 60.3486 123.102 60.6567 120.083 59.2535C117.072 57.8559 116.988 55.2315 116.988 55.2315L111.75 51.7949C111.75 51.7949 122.95 49.9212 129.587 53.89L128.432 54.8982L128.845 56.3043C128.845 56.3043 126.643 54.7918 123.338 54.5425V54.5453Z" fill="#FFC62F"/>
<path d="M143.012 60.8948C142.818 60.7464 142.63 60.6007 142.444 60.4607C142.385 60.4159 142.329 60.3739 142.27 60.329C138.602 57.559 136.429 56.4191 136.429 56.4191L137.51 55.3212L137.9 54.9263C138.833 53.9796 138.838 52.4251 137.911 51.4728C135.732 49.3862 132.162 46.0477 127.756 43.0508C131.502 45.7116 133.572 49.0978 134.578 51.1984C135.114 52.3187 134.904 53.6547 134.039 54.5481L131.609 57.0605C131.609 57.0605 147.151 67.2163 152.016 76.9659C152.097 76.9659 152.179 76.9659 152.257 76.9659C152.269 76.9659 152.28 76.9659 152.291 76.9659C152.367 76.9659 152.443 76.9659 152.519 76.9659C152.53 76.9659 152.538 76.9659 152.549 76.9659C152.625 76.9659 152.701 76.9659 152.774 76.9659C152.783 76.9659 152.788 76.9659 152.797 76.9659C152.872 76.9659 152.951 76.9659 153.024 76.9631C156.282 76.8959 157.661 76.3105 158.209 75.9436C158.22 75.9352 158.234 75.9268 158.245 75.9184C158.245 75.9184 158.248 75.9184 158.251 75.9156C158.262 75.9072 158.273 75.9016 158.282 75.8932C158.282 75.8932 158.284 75.8932 158.287 75.8904C158.296 75.882 158.307 75.8764 158.315 75.8708C158.315 75.8708 158.318 75.868 158.321 75.8652C158.329 75.8596 158.338 75.8512 158.346 75.8456C158.346 75.8456 158.349 75.8428 158.352 75.84C158.36 75.8344 158.366 75.8288 158.374 75.8204C158.374 75.8204 158.377 75.8176 158.38 75.8148C158.386 75.8092 158.394 75.8036 158.4 75.798C158.4 75.798 158.4 75.798 158.402 75.7952C158.422 75.7784 158.436 75.7644 158.45 75.7504C158.453 75.7476 158.456 75.7448 158.461 75.742C158.461 75.742 158.467 75.7364 158.467 75.7336C158.47 75.7308 158.473 75.7252 158.478 75.7224C158.478 75.7224 158.481 75.7196 158.484 75.7168C158.487 75.714 158.489 75.7084 158.492 75.7056C158.492 75.7056 158.492 75.7055 158.495 75.7027C158.498 75.6999 158.501 75.6971 158.503 75.6915C158.503 75.6915 158.503 75.6915 158.503 75.6887C158.506 75.6859 158.509 75.6803 158.512 75.6775C158.526 75.6579 158.532 75.6495 158.532 75.6495C152.339 68.6727 146.927 63.9281 143.006 60.8976L143.012 60.8948Z" fill="white"/>
<path d="M98.7429 56.2202C98.5154 56.0213 98.2514 55.8392 97.9425 55.6796C97.8723 55.6432 97.7908 55.6012 97.7066 55.5564C97.6953 55.5508 97.6841 55.5452 97.6729 55.5396C97.5689 55.4835 97.4538 55.4219 97.3274 55.3575C97.2937 55.3407 97.26 55.3211 97.2263 55.3043C97.1449 55.2623 97.0606 55.2175 96.9707 55.1699C96.9033 55.1334 96.8331 55.097 96.7601 55.0606C96.7152 55.0382 96.6702 55.013 96.6225 54.9878C96.5214 54.9346 96.4146 54.8786 96.3023 54.8226C96.2546 54.7973 96.2068 54.7721 96.1563 54.7469C96.0411 54.6881 95.9232 54.6265 95.7996 54.5621C95.7518 54.5369 95.6985 54.5117 95.6507 54.4865C95.5412 54.4304 95.4289 54.3744 95.3137 54.3156C95.2547 54.2848 95.1929 54.254 95.1312 54.2232C95.0104 54.1616 94.884 54.0999 94.7548 54.0355C94.6986 54.0075 94.6425 53.9795 94.5863 53.9515C94.4346 53.8759 94.2774 53.8003 94.1173 53.7218C94.0611 53.6938 94.0049 53.6658 93.946 53.6406C93.9066 53.621 93.8645 53.6014 93.8252 53.5818C95.4991 54.5901 98.6587 57.3517 97.1112 63.2838C97.1112 63.2838 107.972 73.5012 113.184 80.5957C113.465 80.6181 113.763 80.6321 114.086 80.6349C116.496 80.6573 119.217 80.6853 119.217 80.6853C119.217 80.6853 118.905 80.184 118.226 79.2821C118.181 79.2233 118.133 79.1617 118.088 79.1001C117.105 77.8117 115.445 75.8007 112.951 73.2884C112.482 72.815 111.982 72.3249 111.451 71.8179C110.921 71.311 110.362 70.79 109.769 70.2523C109.177 69.7145 108.553 69.1656 107.899 68.5998C105.604 66.6252 102.911 64.491 99.7793 62.2671C99.7793 62.2671 99.886 61.4269 99.973 60.4886C100.029 59.8864 100.175 58.5925 99.6304 57.4133C99.4338 56.9904 99.1501 56.5787 98.7401 56.2202H98.7429Z" fill="white"/>
<path d="M106.281 100.297C102.7 100.619 98.1698 99.9913 98.1698 99.9913L92.9824 107.103L101.074 107.24C105.576 107.315 108.544 110.965 108.544 110.965C114.361 104.884 113.617 97.8291 113.617 97.8291C113.617 97.8291 109.867 99.9745 106.281 100.297Z" fill="#FFC62F"/>
<path d="M141.971 96.202C136.885 96.1908 131.346 93.1211 131.346 93.1211L124.14 103.075L130.262 103.17C141.173 103.341 144.397 111.643 144.397 111.643C152.531 103.1 151.076 94.3647 151.076 94.3647C151.076 94.3647 147.543 96.2132 141.968 96.202H141.971Z" fill="#FFC62F"/>
<path d="M82.3919 61.2363L78.0163 58.8584C78.0163 58.8584 74.9072 71.2128 96.3699 70.0869L92.6683 66.6951C86.4587 66.1125 83.6754 64.7093 82.3891 61.2391L82.3919 61.2363Z" fill="white"/>
<path d="M120.079 59.2562C117.069 57.8586 116.984 55.2342 116.984 55.2342L111.746 51.7976C111.746 51.7976 109.216 66.4739 131.886 63.2278L128.05 60.3513C128.05 60.3513 123.098 60.6594 120.079 59.2562Z" fill="white"/>
<path d="M129.586 53.8926L125.62 47.6356C115.63 47.5264 111.749 51.7976 111.749 51.7976C111.749 51.7976 122.949 49.9239 129.586 53.8926Z" fill="white"/>
<path d="M103.47 98.3725C110.483 98.4733 116.403 94.0284 116.577 88.7404C116.748 83.4721 111.814 83.6065 111.814 83.6065L104.192 75.7922C107.104 79.9094 106.52 85.3626 106.52 85.3626C104.798 82.1865 99.6109 80.31 95.9907 80.6881C99.9732 83.4861 100.768 91.5721 93.0137 93.7399C93.0137 93.7399 96.4822 98.2744 103.47 98.3753V98.3725Z" fill="url(#paint0_linear_5_200017)"/>
<path d="M113.617 97.8291C113.617 97.8291 109.867 99.9745 106.281 100.297C102.7 100.619 98.1699 99.9913 98.1699 99.9913C98.1699 99.9913 109.769 102.602 108.545 110.965C114.361 104.884 113.617 97.8291 113.617 97.8291Z" fill="white"/>
<path d="M151.077 94.3644C151.077 94.3644 147.544 96.213 141.969 96.2018C136.883 96.1905 131.345 93.1208 131.345 93.1208C131.345 93.1208 147.311 103.195 144.396 111.643C152.529 103.1 151.075 94.3644 151.075 94.3644H151.077Z" fill="white"/>
<path d="M86.4813 58.0547C91.0087 58.4384 93.5476 59.6652 94.6008 60.6062L91.8905 55.5003C82.4146 54.5481 78.0137 58.8613 78.0137 58.8613C78.0361 58.8529 81.3839 57.6262 86.4757 58.0575L86.4813 58.0547Z" fill="white"/>
<path d="M145.204 92.4544C136.512 95.2384 126.449 87.8526 124.978 85.9397C126.031 86.7603 127.359 87.2533 128.803 87.2533C132.238 87.2533 135.021 84.4748 135.021 81.0522C135.021 78.6827 133.684 76.6213 131.721 75.5794C131.704 75.5682 131.687 75.5542 131.667 75.5402C137.315 75.3946 143.107 79.5846 143.107 79.5846C142.834 75.2685 139.183 70.6556 139.183 70.636L147.833 78.9572C147.833 78.9572 153.015 78.9712 153.745 81.5368C154.478 84.1079 153.914 89.662 145.199 92.4544" fill="url(#paint1_linear_5_200017)"/>
</g>
</g>
<defs>
<linearGradient id="paint0_linear_5_200017" x1="93.0137" y1="87.0823" x2="116.583" y2="87.0823" gradientUnits="userSpaceOnUse">
<stop stop-color="white"/>
<stop offset="1" stop-color="white"/>
</linearGradient>
<linearGradient id="paint1_linear_5_200017" x1="124.98" y1="81.8533" x2="153.984" y2="81.8533" gradientUnits="userSpaceOnUse">
<stop stop-color="white"/>
<stop offset="1" stop-color="white"/>
</linearGradient>
<clipPath id="clip0_5_200017">
<rect width="200" height="200" fill="white"/>
</clipPath>
<clipPath id="clip1_5_200017">
<rect width="200" height="157" fill="white" transform="translate(0.400391 21.3501)"/>
</clipPath>
</defs>
</svg>
